<svg xmlns="http://www.w3.org/2000/svg" width="144" height="256" viewBox="0 0 144 256"><title>Shopper: Man in a suit, no tie</title><ellipse cx="72" cy="242" rx="36" ry="10" fill="#000" fill-opacity="0.15"/><rect x="48" y="166" width="21" height="74" rx="8" fill="#2f3a4a" stroke="#2b2118" stroke-width="3" stroke-linejoin="round"/><rect x="75" y="166" width="21" height="74" rx="8" fill="#2f3a4a" stroke="#2b2118" stroke-width="3" stroke-linejoin="round"/><path d="M42,96 q30,-16 60,0 l4,76 q-34,8 -68,0 z" fill="#3c4a5c" stroke="#2b2118" stroke-width="3" stroke-linejoin="round"/><path d="M62,94 l10,22 l10,-22" fill="#f4f1ea" stroke="#2b2118" stroke-width="3" stroke-linejoin="round"/><ellipse cx="50" cy="242" rx="13" ry="6" fill="#2b2118"/><ellipse cx="94" cy="242" rx="13" ry="6" fill="#2b2118"/><rect x="32" y="100" width="14" height="62" rx="7" fill="#3c4a5c" stroke="#2b2118" stroke-width="3" stroke-linejoin="round"/><rect x="98" y="100" width="14" height="62" rx="7" fill="#3c4a5c" stroke="#2b2118" stroke-width="3" stroke-linejoin="round"/><circle cx="39" cy="164" r="8" fill="#c99a74" stroke="#2b2118" stroke-width="3" stroke-linejoin="round"/><circle cx="105" cy="164" r="8" fill="#c99a74" stroke="#2b2118" stroke-width="3" stroke-linejoin="round"/><circle cx="72" cy="64" r="27" fill="#c99a74" stroke="#2b2118" stroke-width="3" stroke-linejoin="round"/><path d="M45,62 q0,-32 27,-32 q27,0 27,32 q-8,-16 -27,-16 q-19,0 -27,16z" fill="#2b2118"/><circle cx="64" cy="64" r="3" fill="#2b2118"/><circle cx="80" cy="64" r="3" fill="#2b2118"/><path d="M66,76 q6,5 12,0" fill="none" stroke="#2b2118" stroke-width="2.5" stroke-linecap="round"/></svg>