<svg xmlns="http://www.w3.org/2000/svg" width="192" height="216" viewBox="0 0 192 216"><title>Delivery van</title><polygon points="0.0,172.0 64.0,204.0 64.0,134.0 0.0,102.0" fill="#e4e4de" stroke="#2b2118" stroke-width="3" stroke-linejoin="round" /><polygon points="64.0,204.0 192.0,140.0 192.0,70.0 64.0,134.0" fill="#ffffff" stroke="#2b2118" stroke-width="3" stroke-linejoin="round" /><polygon points="128.0,38.0 192.0,70.0 64.0,134.0 0.0,102.0" fill="#f6f6f2" stroke="#2b2118" stroke-width="3" stroke-linejoin="round" /><polygon points="0.0,144.0 64.0,176.0 64.0,164.0 0.0,132.0" fill="#22304d" /><text x="0" y="0" font-family="Arial, Helvetica, sans-serif" font-size="13" font-weight="700" fill="#d8b45a" transform="translate(10,143) skewY(26.57)">TIME KEEPER</text><polygon points="70.0,154.0 186.0,90.0 186.0,74.0 70.0,138.0" fill="#7fb6d6" stroke="#2b2118" stroke-width="2" stroke-linejoin="round" /><ellipse cx="14.08" cy="177.04" rx="11" ry="13" fill="#2d2d2d" stroke="#2b2118" stroke-width="2"/><ellipse cx="14.08" cy="177.04" rx="4.5" ry="5.5" fill="#bfc3c8"/><ellipse cx="51.2" cy="195.6" rx="11" ry="13" fill="#2d2d2d" stroke="#2b2118" stroke-width="2"/><ellipse cx="51.2" cy="195.6" rx="4.5" ry="5.5" fill="#bfc3c8"/><circle cx="76" cy="182" r="4" fill="#fff5c4" stroke="#2b2118" stroke-width="1.5"/><circle cx="180" cy="118" r="4" fill="#fff5c4" stroke="#2b2118" stroke-width="1.5"/></svg>
